<svg width="18" height="18" viewBox="0 0 18 18" fill="none" xmlns="http://www.w3.org/2000/svg">
<path d="M9 0C13.9706 0 18 4.02944 18 9C18 13.9706 13.9706 18 9 18H7.15234V16.5962C7.15234 15.5715 7.98408 14.7477 9.00879 14.7461C12.3378 14.7413 15.0032 11.9076 14.731 8.52002C14.5044 5.70417 12.1966 3.43776 9.37598 3.25879L9.37451 3.26221C6.02958 3.04998 3.25002 5.69953 3.25 8.99854V12.5049C3.25017 12.7469 3.56017 12.8579 3.70752 12.6636C4.43605 11.6975 5.44374 10.9561 6.60938 10.5586C6.92915 10.4493 7.15226 10.1576 7.15234 9.81885V9.06348C7.15235 8.0182 7.99183 7.12981 9.03711 7.15039C10.0444 7.1694 10.8539 7.99468 10.8491 9.0083C10.8441 10.0217 9.95723 10.8357 8.9248 10.8452C5.87765 10.8769 3.25153 12.8265 3.25146 16.5942V18H1.63623C0.732598 17.9999 7.19879e-05 17.2674 0 16.3638V9C0 4.02944 4.02944 0 9 0Z" fill="white"/>
</svg>
