<svg width="1700" height="104" viewBox="0 0 1700 104" fill="none" xmlns="http://www.w3.org/2000/svg">
<mask id="mask0_21_313" style="mask-type:alpha" maskUnits="userSpaceOnUse" x="0" y="3" width="1700" height="96">
<rect y="3" width="1700" height="96" fill="#C1C1C1"/>
</mask>
<g mask="url(#mask0_21_313)">
<path opacity="0.5" fill-rule="evenodd" clip-rule="evenodd" d="M829.559 351.92V309.698L870.441 309.698V351.92H872.773V309.698H914.083V351.92H916.415V309.698H957.724V351.92H960.056V309.698H1001.37V351.92H1003.7V309.698H1045.01V351.92H1047.34V309.698H1088.65V351.92H1090.98V309.698H1132.29V351.92H1134.62V309.698H1175.93V351.92H1178.26V309.698H1219.57V351.92H1221.91V309.698L1263.22 309.698L1263.22 351.92H1265.55V309.698H1306.86V351.92H1309.19V309.698H1350.5V351.92H1352.83V309.698H1394.14L1394.14 351.92H1396.47V309.698H1437.78V351.92H1440.11V309.698H1481.42V351.92H1483.76V309.698H1525.07V351.92H1527.4V309.698H1568.71V351.92H1571.04V309.698L1612.35 309.698V351.92H1614.68V309.698H1655.99V351.92H1658.32V309.698H1700V307.366H1658.32V269.77H1700V267.438H1658.32V229.842H1700V227.51L1658.32 227.51V189.914H1700V187.582H1658.32V149.986H1700V147.654H1658.32V110.058H1700V107.726H1658.32V70.1297H1700V67.7976H1658.32V30.2018H1700V27.8696H1658.32V-9.72623H1700V-12.0584H1658.32V-49.6542H1700V-51.9864H1658.32V-89.5822H1700V-91.9143H1658.32V-129.51L1700 -129.51V-131.842L1658.32 -131.842V-173L1655.99 -173V-131.842L1614.68 -131.842V-173L1612.35 -173V-131.842L1571.04 -131.842V-173L1568.71 -173V-131.842L1527.4 -131.842V-173L1525.07 -173V-131.842L1483.76 -131.842V-173L1481.42 -173V-131.842H1440.11V-173L1437.78 -173V-131.842H1396.47V-173L1394.14 -173V-131.842L1352.83 -131.842V-173L1350.5 -173V-131.842L1309.19 -131.842V-173L1306.86 -173V-131.842L1265.55 -131.842V-173L1263.22 -173V-131.842L1221.91 -131.842V-173L1219.57 -173V-131.842L1178.26 -131.842V-173L1175.93 -173V-131.842L1134.62 -131.842V-173L1132.29 -173V-131.842L1090.98 -131.842V-173L1088.65 -173V-131.842L1047.34 -131.842V-173L1045.01 -173V-131.842L1003.7 -131.842V-173L1001.37 -173V-131.842L960.056 -131.842V-173H957.724V-131.842H916.415V-173L914.083 -173V-131.842H872.773V-173L870.441 -173V-131.842L829.559 -131.842V-173L827.227 -173V-131.842L785.918 -131.842V-173L783.585 -173V-131.842L742.276 -131.842V-173L739.944 -173V-131.842L698.634 -131.842V-173L696.302 -173V-131.842L654.993 -131.842V-173L652.66 -173V-131.842H611.351V-173L609.019 -173V-131.842H567.709V-173L565.377 -173V-131.842L524.068 -131.842V-173L521.735 -173V-131.842L480.426 -131.842V-173L478.094 -173V-131.842L436.784 -131.842V-173L434.452 -173V-131.842L393.143 -131.842V-173L390.811 -173V-131.842L349.501 -131.842V-173L347.169 -173V-131.842L305.859 -131.842V-173L303.527 -173V-131.842L262.218 -131.842V-173L259.886 -173V-131.842L218.576 -131.842V-173L216.244 -173V-131.842L174.934 -131.842V-173L172.602 -173V-131.842L131.293 -131.842L131.293 -173H128.961V-131.842H87.6511L87.6511 -173L85.319 -173L85.319 -131.842H44.0095L44.0095 -173L41.6774 -173L41.6774 -131.842L3.86007e-05 -131.842L3.83968e-05 -129.51L41.6774 -129.51L41.6774 -91.9144H3.511e-05L3.49062e-05 -89.5823H41.6774L41.6774 -51.9864H3.16194e-05L3.14155e-05 -49.6543H41.6774V-12.0584L2.81288e-05 -12.0584L2.79249e-05 -9.7263L41.6774 -9.72629L41.6774 27.8696L2.46382e-05 27.8696L2.44343e-05 30.2017L41.6774 30.2017L41.6773 67.7975L2.11476e-05 67.7975L2.09437e-05 70.1297L41.6773 70.1297L41.6773 107.726H1.7657e-05L1.74531e-05 110.058H41.6773L41.6773 147.654H1.41663e-05L1.39625e-05 149.986H41.6773L41.6773 187.582H1.06757e-05L1.04718e-05 189.914H41.6773V227.509H7.18511e-06L6.98123e-06 229.842L41.6773 229.842L41.6773 267.438H3.69449e-06L3.49061e-06 269.77H41.6773L41.6773 307.365H2.03879e-07L0 309.698L41.6773 309.698L41.6773 351.92H44.0094L44.0094 309.698H85.319V351.92H87.6511V309.698H128.961V351.92H131.293V309.698H172.602V351.92H174.934V309.698H216.244V351.92H218.576V309.698H259.886V351.92H262.218V309.698H303.527V351.92H305.859V309.698H347.169V351.92H349.501V309.698H390.811V351.92H393.143V309.698L434.452 309.698V351.92H436.784V309.698H478.094V351.92H480.426V309.698H521.735V351.92H524.068V309.698H565.377V351.92H567.709V309.698H609.019V351.92H611.351L611.351 309.698H652.66L652.66 351.92H654.993V309.698H696.302V351.92H698.634V309.698H739.944V351.92H742.276V309.698L783.585 309.698V351.92H785.917V309.698H827.227V351.92H829.559ZM870.441 -129.51L829.559 -129.51V-91.9143L870.441 -91.9144V-129.51ZM870.441 -89.5823L829.559 -89.5822V-51.9864L870.441 -51.9864V-89.5823ZM870.441 -49.6543L829.559 -49.6542V-12.0584L870.441 -12.0584L870.441 -49.6543ZM870.441 -9.72629L829.559 -9.72623V27.8696L870.441 27.8696V-9.72629ZM870.441 30.2017L829.559 30.2018V67.7976L870.441 67.7975V30.2017ZM870.441 70.1297L829.559 70.1297V107.726L870.441 107.726V70.1297ZM870.441 110.058L829.559 110.058V147.654L870.441 147.654V110.058ZM870.441 149.986L829.559 149.986V187.582L870.441 187.582V149.986ZM870.441 189.914L829.559 189.914V227.51L870.441 227.509V189.914ZM870.441 229.842L829.559 229.842V267.438L870.441 267.438V229.842ZM870.441 269.77L829.559 269.77L829.559 307.366L870.441 307.365V269.77ZM827.227 269.77L827.227 307.366L785.917 307.366L785.917 269.77H827.227ZM783.585 269.77V307.366H742.276V269.77H783.585ZM739.944 269.77V307.366H698.634V269.77H739.944ZM696.302 269.77V307.366H654.993V269.77H696.302ZM652.66 269.77V307.366H611.351V269.77H652.66ZM609.019 269.77V307.366H567.709V269.77L609.019 269.77ZM565.377 269.77V307.366H524.068V269.77H565.377ZM521.735 269.77V307.366H480.426V269.77H521.735ZM478.094 269.77V307.366L436.784 307.365V269.77H478.094ZM434.452 269.77V307.365H393.143V269.77H434.452ZM390.811 269.77V307.365H349.501V269.77H390.811ZM347.169 269.77V307.365H305.859V269.77H347.169ZM303.527 269.77V307.365H262.218V269.77H303.527ZM259.886 269.77V307.365H218.576V269.77H259.886ZM216.244 269.77V307.365H174.934V269.77L216.244 269.77ZM172.602 269.77V307.365H131.293V269.77H172.602ZM128.961 269.77V307.365H87.6511L87.6511 269.77H128.961ZM85.319 269.77L85.319 307.365L44.0094 307.365L44.0094 269.77H85.319ZM85.319 267.438H44.0094L44.0094 229.842H85.319V267.438ZM85.319 227.509H44.0094V189.914H85.319L85.319 227.509ZM85.319 187.582H44.0094L44.0094 149.986H85.319V187.582ZM85.319 147.654H44.0094L44.0094 110.058H85.319L85.319 147.654ZM85.319 107.726H44.0094L44.0095 70.1297H85.319V107.726ZM85.319 67.7975H44.0095L44.0095 30.2017H85.319V67.7975ZM85.319 27.8696H44.0095L44.0095 -9.72629H85.319L85.319 27.8696ZM85.319 -12.0584H44.0095V-49.6543L85.319 -49.6543V-12.0584ZM85.319 -51.9864L44.0095 -51.9864L44.0095 -89.5823L85.319 -89.5823L85.319 -51.9864ZM85.319 -91.9144L44.0095 -91.9144L44.0095 -129.51H85.319V-91.9144ZM87.6511 -91.9144V-129.51H128.961V-91.9144H87.6511ZM131.293 -91.9144V-129.51L172.602 -129.51L172.602 -91.9144L131.293 -91.9144ZM174.934 -91.9144L174.934 -129.51L216.244 -129.51L216.244 -91.9144H174.934ZM218.576 -91.9144L218.576 -129.51L259.886 -129.51L259.886 -91.9144L218.576 -91.9144ZM262.218 -91.9144L262.218 -129.51L303.527 -129.51V-91.9144H262.218ZM305.859 -91.9144V-129.51L347.169 -129.51V-91.9144H305.859ZM349.501 -91.9144V-129.51L390.811 -129.51V-91.9144H349.501ZM393.143 -91.9144V-129.51L434.452 -129.51V-91.9144H393.143ZM436.784 -91.9144V-129.51L478.094 -129.51V-91.9144L436.784 -91.9144ZM480.426 -91.9144V-129.51L521.735 -129.51V-91.9144H480.426ZM524.068 -91.9144V-129.51L565.377 -129.51V-91.9144L524.068 -91.9144ZM567.709 -91.9144V-129.51H609.019V-91.9144H567.709ZM611.351 -91.9144V-129.51H652.66V-91.9143L611.351 -91.9144ZM654.993 -91.9143V-129.51L696.302 -129.51V-91.9143H654.993ZM698.634 -91.9143V-129.51L739.944 -129.51V-91.9143L698.634 -91.9143ZM742.276 -91.9143L742.276 -129.51L783.585 -129.51V-91.9143H742.276ZM785.917 -91.9143L785.918 -129.51L827.227 -129.51V-91.9143L785.917 -91.9143ZM785.917 -89.5822L827.227 -89.5822V-51.9864L785.917 -51.9864V-89.5822ZM785.917 -49.6542L827.227 -49.6542V-12.0584H785.917V-49.6542ZM785.917 -9.72623H827.227V27.8696H785.917V-9.72623ZM785.917 30.2018H827.227V67.7976H785.917V30.2018ZM785.917 70.1297H827.227V107.726H785.917V70.1297ZM785.917 110.058H827.227V147.654H785.917V110.058ZM785.917 149.986H827.227V187.582H785.917V149.986ZM785.917 189.914H827.227V227.51H785.917V189.914ZM785.917 229.842H827.227V267.438H785.917V229.842ZM783.585 229.842L783.585 267.438H742.276V229.842L783.585 229.842ZM739.944 229.842L739.944 267.438H698.634V229.842H739.944ZM696.302 229.842V267.438L654.993 267.438V229.842H696.302ZM652.66 229.842V267.438H611.351V229.842H652.66ZM609.019 229.842V267.438H567.709V229.842H609.019ZM565.377 229.842V267.438H524.068V229.842H565.377ZM521.735 229.842V267.438H480.426V229.842H521.735ZM478.094 229.842V267.438H436.784V229.842H478.094ZM434.452 229.842V267.438H393.143V229.842L434.452 229.842ZM390.811 229.842V267.438H349.501V229.842H390.811ZM347.169 229.842V267.438H305.859V229.842H347.169ZM303.527 229.842V267.438L262.218 267.438L262.218 229.842H303.527ZM259.886 229.842V267.438H218.576L218.576 229.842H259.886ZM216.244 229.842L216.244 267.438H174.934L174.934 229.842H216.244ZM172.602 229.842L172.602 267.438H131.293V229.842H172.602ZM128.961 229.842V267.438H87.6511V229.842H128.961ZM128.961 227.51L87.6511 227.509L87.6511 189.914H128.961L128.961 227.51ZM128.961 187.582H87.6511V149.986L128.961 149.986V187.582ZM128.961 147.654L87.6511 147.654L87.6511 110.058H128.961L128.961 147.654ZM128.961 107.726H87.6511V70.1297H128.961V107.726ZM128.961 67.7975H87.6511V30.2017H128.961V67.7975ZM128.961 27.8696H87.6511L87.6511 -9.72629H128.961V27.8696ZM128.961 -12.0584H87.6511V-49.6543H128.961V-12.0584ZM128.961 -51.9864H87.6511L87.6511 -89.5823H128.961L128.961 -51.9864ZM131.293 -51.9864V-89.5823L172.602 -89.5823V-51.9864L131.293 -51.9864ZM174.934 -51.9864V-89.5823H216.244V-51.9864H174.934ZM218.576 -51.9864V-89.5823L259.886 -89.5823V-51.9864L218.576 -51.9864ZM262.218 -51.9864V-89.5823H303.527V-51.9864H262.218ZM305.859 -51.9864V-89.5823H347.169V-51.9864H305.859ZM349.501 -51.9864V-89.5823H390.811V-51.9864H349.501ZM393.143 -51.9864V-89.5823H434.452V-51.9864H393.143ZM436.784 -51.9864V-89.5823L478.094 -89.5823V-51.9864L436.784 -51.9864ZM480.426 -51.9864V-89.5823H521.735V-51.9864H480.426ZM524.068 -51.9864V-89.5823L565.377 -89.5822V-51.9864L524.068 -51.9864ZM567.709 -51.9864V-89.5822H609.019V-51.9864H567.709ZM611.351 -51.9864V-89.5822L652.66 -89.5822V-51.9864L611.351 -51.9864ZM654.993 -51.9864V-89.5822H696.302V-51.9864H654.993ZM698.634 -51.9864V-89.5822L739.944 -89.5822V-51.9864L698.634 -51.9864ZM742.276 -51.9864V-89.5822H783.585V-51.9864H742.276ZM742.276 -49.6542H783.585V-12.0584L742.276 -12.0584V-49.6542ZM742.276 -9.72624L783.585 -9.72623V27.8696L742.276 27.8696V-9.72624ZM742.276 30.2018L783.585 30.2018V67.7976L742.276 67.7976V30.2018ZM742.276 70.1297L783.585 70.1297V107.726H742.276V70.1297ZM742.276 110.058H783.585V147.654H742.276V110.058ZM742.276 149.986H783.585V187.582H742.276V149.986ZM742.276 189.914H783.585V227.51H742.276V189.914ZM739.944 189.914V227.51H698.634V189.914H739.944ZM696.302 189.914V227.51H654.993V189.914L696.302 189.914ZM652.66 189.914V227.51H611.351V189.914H652.66ZM609.019 189.914V227.51H567.709V189.914H609.019ZM565.377 189.914V227.51H524.068V189.914H565.377ZM521.735 189.914V227.51L480.426 227.51V189.914H521.735ZM478.094 189.914V227.51H436.784V189.914H478.094ZM434.452 189.914V227.51H393.143V189.914H434.452ZM390.811 189.914V227.51H349.501L349.501 189.914H390.811ZM347.169 189.914L347.169 227.51H305.859V189.914H347.169ZM303.527 189.914V227.51H262.218V189.914L303.527 189.914ZM259.886 189.914V227.51H218.576V189.914H259.886ZM216.244 189.914V227.51H174.934V189.914H216.244ZM172.602 189.914V227.51H131.293L131.293 189.914H172.602ZM172.602 187.582H131.293V149.986H172.602V187.582ZM172.602 147.654H131.293V110.058H172.602V147.654ZM172.602 107.726H131.293V70.1297H172.602V107.726ZM172.602 67.7975H131.293V30.2017H172.602L172.602 67.7975ZM172.602 27.8696H131.293L131.293 -9.72629H172.602V27.8696ZM172.602 -12.0584H131.293V-49.6543L172.602 -49.6543V-12.0584ZM174.934 -12.0584V-49.6543H216.244V-12.0584L174.934 -12.0584ZM218.576 -12.0584V-49.6543L259.886 -49.6543V-12.0584H218.576ZM262.218 -12.0584V-49.6543H303.527V-12.0584H262.218ZM305.859 -12.0584V-49.6543H347.169L347.169 -12.0584H305.859ZM349.501 -12.0584L349.501 -49.6543H390.811V-12.0584H349.501ZM393.143 -12.0584V-49.6543H434.452V-12.0584L393.143 -12.0584ZM436.784 -12.0584V-49.6543L478.094 -49.6543V-12.0584H436.784ZM480.426 -12.0584V-49.6543H521.735V-12.0584H480.426ZM524.068 -12.0584V-49.6543L565.377 -49.6542L565.377 -12.0584H524.068ZM567.709 -12.0584L567.709 -49.6542H609.019L609.019 -12.0584L567.709 -12.0584ZM611.351 -12.0584L611.351 -49.6542L652.66 -49.6542V-12.0584H611.351ZM654.993 -12.0584V-49.6542H696.302V-12.0584H654.993ZM698.634 -12.0584V-49.6542L739.944 -49.6542V-12.0584H698.634ZM698.634 -9.72624H739.944V27.8696H698.634V-9.72624ZM698.634 30.2018H739.944V67.7976H698.634V30.2018ZM698.634 70.1297H739.944V107.726H698.634V70.1297ZM698.634 110.058H739.944V147.654H698.634V110.058ZM698.634 149.986H739.944V187.582H698.634L698.634 149.986ZM696.302 149.986L696.302 187.582L654.993 187.582V149.986H696.302ZM652.66 149.986V187.582H611.351V149.986H652.66ZM609.019 149.986V187.582H567.709V149.986H609.019ZM565.377 149.986V187.582H524.068L524.068 149.986H565.377ZM521.735 149.986L521.735 187.582H480.426L480.426 149.986L521.735 149.986ZM478.094 149.986L478.094 187.582H436.784L436.784 149.986H478.094ZM434.452 149.986L434.452 187.582H393.143L393.143 149.986H434.452ZM390.811 149.986L390.811 187.582H349.501L349.501 149.986H390.811ZM347.169 149.986L347.169 187.582H305.859L305.859 149.986H347.169ZM303.527 149.986L303.527 187.582L262.218 187.582V149.986H303.527ZM259.886 149.986V187.582H218.576V149.986H259.886ZM216.244 149.986V187.582H174.934V149.986H216.244ZM216.244 147.654H174.934V110.058H216.244V147.654ZM216.244 107.726H174.934V70.1297L216.244 70.1297V107.726ZM216.244 67.7976L174.934 67.7975L174.934 30.2017L216.244 30.2017L216.244 67.7976ZM216.244 27.8696L174.934 27.8696V-9.72629L216.244 -9.72627V27.8696ZM218.576 27.8696V-9.72627H259.886V27.8696H218.576ZM262.218 27.8696V-9.72627H303.527V27.8696H262.218ZM305.859 27.8696V-9.72627H347.169V27.8696H305.859ZM349.501 27.8696V-9.72627H390.811V27.8696H349.501ZM393.143 27.8696V-9.72627L434.452 -9.72626V27.8696L393.143 27.8696ZM436.784 27.8696V-9.72626H478.094V27.8696H436.784ZM480.426 27.8696V-9.72626H521.735V27.8696H480.426ZM524.068 27.8696V-9.72626H565.377V27.8696H524.068ZM567.709 27.8696V-9.72626L609.019 -9.72624V27.8696L567.709 27.8696ZM611.351 27.8696V-9.72624H652.66V27.8696H611.351ZM654.993 27.8696V-9.72624H696.302V27.8696H654.993ZM654.993 30.2018H696.302V67.7976H654.993V30.2018ZM654.993 70.1297H696.302V107.726L654.993 107.726V70.1297ZM654.993 110.058L696.302 110.058V147.654H654.993V110.058ZM652.66 110.058V147.654H611.351V110.058H652.66ZM609.019 110.058V147.654H567.709V110.058H609.019ZM565.377 110.058V147.654H524.068V110.058H565.377ZM521.735 110.058V147.654L480.426 147.654V110.058H521.735ZM478.094 110.058V147.654H436.784V110.058H478.094ZM434.452 110.058V147.654H393.143V110.058H434.452ZM390.811 110.058V147.654H349.501V110.058H390.811ZM347.169 110.058V147.654H305.859V110.058H347.169ZM303.527 110.058V147.654H262.218V110.058L303.527 110.058ZM259.886 110.058V147.654H218.576V110.058H259.886ZM259.886 107.726H218.576V70.1297H259.886V107.726ZM259.886 67.7976H218.576L218.576 30.2017H259.886L259.886 67.7976ZM262.218 67.7976V30.2017H303.527V67.7976H262.218ZM305.859 67.7976V30.2017H347.169V67.7976H305.859ZM349.501 67.7976V30.2017H390.811V67.7976H349.501ZM393.143 67.7976V30.2017L434.452 30.2017V67.7976L393.143 67.7976ZM436.784 67.7976V30.2017H478.094V67.7976H436.784ZM480.426 67.7976V30.2017H521.735V67.7976H480.426ZM524.068 67.7976V30.2017H565.377V67.7976H524.068ZM567.709 67.7976V30.2017L609.019 30.2018V67.7976L567.709 67.7976ZM611.351 67.7976V30.2018H652.66V67.7976H611.351ZM611.351 70.1297H652.66V107.726H611.351V70.1297ZM609.019 70.1297V107.726H567.709V70.1297L609.019 70.1297ZM565.377 70.1297V107.726H524.068L524.068 70.1297H565.377ZM521.735 70.1297V107.726H480.426L480.426 70.1297H521.735ZM478.094 70.1297L478.094 107.726H436.784L436.784 70.1297H478.094ZM434.452 70.1297L434.452 107.726H393.143L393.143 70.1297L434.452 70.1297ZM390.811 70.1297L390.811 107.726H349.501V70.1297H390.811ZM347.169 70.1297V107.726H305.859V70.1297H347.169ZM303.527 70.1297V107.726L262.218 107.726V70.1297H303.527ZM1655.99 269.77V307.366L1614.68 307.366V269.77H1655.99ZM1612.35 269.77V307.366H1571.04V269.77H1612.35ZM1568.71 269.77V307.366H1527.4V269.77H1568.71ZM1525.07 269.77V307.366H1483.76V269.77H1525.07ZM1481.42 269.77V307.366H1440.11V269.77H1481.42ZM1437.78 269.77V307.366H1396.47V269.77L1437.78 269.77ZM1394.14 269.77V307.366H1352.83V269.77H1394.14ZM1350.5 269.77V307.366H1309.19V269.77H1350.5ZM1306.86 269.77V307.366L1265.55 307.365V269.77H1306.86ZM1263.22 269.77V307.365H1221.91V269.77H1263.22ZM1219.57 269.77V307.365H1178.26V269.77H1219.57ZM1175.93 269.77V307.365H1134.62V269.77H1175.93ZM1132.29 269.77V307.365H1090.98V269.77H1132.29ZM1088.65 269.77V307.365H1047.34V269.77H1088.65ZM1045.01 269.77V307.365H1003.7V269.77L1045.01 269.77ZM1001.37 269.77V307.365H960.056V269.77H1001.37ZM957.724 269.77V307.365H916.415V269.77H957.724ZM914.083 269.77V307.365L872.773 307.365V269.77H914.083ZM914.083 267.438H872.773V229.842H914.083V267.438ZM914.083 227.509H872.773V189.914H914.083V227.509ZM914.083 187.582H872.773V149.986H914.083V187.582ZM914.083 147.654H872.773V110.058H914.083V147.654ZM914.083 107.726H872.773V70.1297H914.083V107.726ZM914.083 67.7975H872.773V30.2017H914.083V67.7975ZM914.083 27.8696H872.773V-9.72629H914.083V27.8696ZM914.083 -12.0584H872.773L872.773 -49.6543L914.083 -49.6543L914.083 -12.0584ZM914.083 -51.9864L872.773 -51.9864V-89.5823L914.083 -89.5823V-51.9864ZM914.083 -91.9144L872.773 -91.9144V-129.51H914.083V-91.9144ZM916.415 -91.9144V-129.51H957.724V-91.9144H916.415ZM960.056 -91.9144V-129.51L1001.37 -129.51V-91.9144L960.056 -91.9144ZM1003.7 -91.9144V-129.51L1045.01 -129.51V-91.9144H1003.7ZM1047.34 -91.9144V-129.51L1088.65 -129.51V-91.9144L1047.34 -91.9144ZM1090.98 -91.9144V-129.51L1132.29 -129.51V-91.9144H1090.98ZM1134.62 -91.9144V-129.51L1175.93 -129.51V-91.9144H1134.62ZM1178.26 -91.9144V-129.51L1219.57 -129.51V-91.9144H1178.26ZM1221.91 -91.9144V-129.51L1263.22 -129.51V-91.9144H1221.91ZM1265.55 -91.9144V-129.51L1306.86 -129.51V-91.9144L1265.55 -91.9144ZM1309.19 -91.9144V-129.51L1350.5 -129.51V-91.9144H1309.19ZM1352.83 -91.9144V-129.51L1394.14 -129.51V-91.9144L1352.83 -91.9144ZM1396.47 -91.9144V-129.51H1437.78V-91.9144H1396.47ZM1440.11 -91.9144V-129.51H1481.42V-91.9143L1440.11 -91.9144ZM1483.76 -91.9143V-129.51L1525.07 -129.51V-91.9143H1483.76ZM1527.4 -91.9143V-129.51L1568.71 -129.51V-91.9143L1527.4 -91.9143ZM1571.04 -91.9143V-129.51L1612.35 -129.51V-91.9143H1571.04ZM1614.68 -91.9143V-129.51L1655.99 -129.51V-91.9143L1614.68 -91.9143ZM1614.68 -89.5822L1655.99 -89.5822V-51.9864L1614.68 -51.9864V-89.5822ZM1614.68 -49.6542L1655.99 -49.6542V-12.0584H1614.68V-49.6542ZM1614.68 -9.72623H1655.99L1655.99 27.8696H1614.68V-9.72623ZM1614.68 30.2018H1655.99V67.7976H1614.68L1614.68 30.2018ZM1614.68 70.1297H1655.99V107.726H1614.68V70.1297ZM1614.68 110.058H1655.99V147.654H1614.68V110.058ZM1614.68 149.986H1655.99V187.582H1614.68V149.986ZM1614.68 189.914H1655.99V227.51H1614.68V189.914ZM1614.68 229.842H1655.99V267.438H1614.68V229.842ZM1612.35 229.842V267.438H1571.04V229.842L1612.35 229.842ZM1568.71 229.842V267.438H1527.4V229.842H1568.71ZM1525.07 229.842V267.438L1483.76 267.438V229.842H1525.07ZM1481.42 229.842V267.438H1440.11V229.842H1481.42ZM1437.78 229.842V267.438H1396.47V229.842H1437.78ZM1394.14 229.842V267.438H1352.83V229.842H1394.14ZM1350.5 229.842V267.438H1309.19V229.842H1350.5ZM1306.86 229.842V267.438H1265.55V229.842H1306.86ZM1263.22 229.842V267.438H1221.91V229.842L1263.22 229.842ZM1219.57 229.842V267.438H1178.26V229.842H1219.57ZM1175.93 229.842V267.438H1134.62V229.842H1175.93ZM1132.29 229.842V267.438L1090.98 267.438V229.842H1132.29ZM1088.65 229.842V267.438H1047.34V229.842H1088.65ZM1045.01 229.842V267.438H1003.7V229.842H1045.01ZM1001.37 229.842V267.438H960.056V229.842H1001.37ZM957.724 229.842V267.438H916.415V229.842H957.724ZM957.724 227.51L916.415 227.509V189.914H957.724V227.51ZM957.724 187.582H916.415V149.986L957.724 149.986V187.582ZM957.724 147.654L916.415 147.654V110.058H957.724V147.654ZM957.724 107.726H916.415V70.1297H957.724V107.726ZM957.724 67.7975H916.415V30.2017H957.724V67.7975ZM957.724 27.8696H916.415V-9.72629H957.724V27.8696ZM957.724 -12.0584H916.415L916.415 -49.6543H957.724L957.724 -12.0584ZM957.724 -51.9864H916.415V-89.5823H957.724V-51.9864ZM960.056 -51.9864V-89.5823L1001.37 -89.5823V-51.9864L960.056 -51.9864ZM1003.7 -51.9864V-89.5823H1045.01V-51.9864H1003.7ZM1047.34 -51.9864V-89.5823L1088.65 -89.5823V-51.9864L1047.34 -51.9864ZM1090.98 -51.9864V-89.5823H1132.29V-51.9864H1090.98ZM1134.62 -51.9864V-89.5823H1175.93V-51.9864H1134.62ZM1178.26 -51.9864V-89.5823H1219.57V-51.9864H1178.26ZM1221.91 -51.9864V-89.5823H1263.22V-51.9864H1221.91ZM1265.55 -51.9864V-89.5823L1306.86 -89.5823V-51.9864L1265.55 -51.9864ZM1309.19 -51.9864V-89.5823H1350.5V-51.9864H1309.19ZM1352.83 -51.9864V-89.5823L1394.14 -89.5822V-51.9864L1352.83 -51.9864ZM1396.47 -51.9864V-89.5822H1437.78V-51.9864H1396.47ZM1440.11 -51.9864V-89.5822L1481.42 -89.5822V-51.9864L1440.11 -51.9864ZM1483.76 -51.9864V-89.5822H1525.07V-51.9864H1483.76ZM1527.4 -51.9864V-89.5822L1568.71 -89.5822V-51.9864L1527.4 -51.9864ZM1571.04 -51.9864V-89.5822H1612.35V-51.9864H1571.04ZM1571.04 -49.6542H1612.35V-12.0584L1571.04 -12.0584V-49.6542ZM1571.04 -9.72624L1612.35 -9.72623V27.8696L1571.04 27.8696V-9.72624ZM1571.04 30.2018L1612.35 30.2018V67.7976L1571.04 67.7976V30.2018ZM1571.04 70.1297L1612.35 70.1297V107.726H1571.04V70.1297ZM1571.04 110.058H1612.35V147.654H1571.04V110.058ZM1571.04 149.986H1612.35V187.582H1571.04V149.986ZM1571.04 189.914H1612.35V227.51H1571.04V189.914ZM1568.71 189.914V227.51H1527.4V189.914H1568.71ZM1525.07 189.914V227.51H1483.76V189.914L1525.07 189.914ZM1481.42 189.914V227.51H1440.11V189.914H1481.42ZM1437.78 189.914V227.51H1396.47V189.914H1437.78ZM1394.14 189.914V227.51H1352.83V189.914H1394.14ZM1350.5 189.914V227.51L1309.19 227.51V189.914H1350.5ZM1306.86 189.914V227.51H1265.55V189.914H1306.86ZM1263.22 189.914V227.51H1221.91V189.914H1263.22ZM1219.57 189.914V227.51H1178.26V189.914H1219.57ZM1175.93 189.914L1175.93 227.51H1134.62V189.914H1175.93ZM1132.29 189.914V227.51H1090.98V189.914L1132.29 189.914ZM1088.65 189.914V227.51H1047.34V189.914H1088.65ZM1045.01 189.914V227.51H1003.7V189.914H1045.01ZM1001.37 189.914V227.51H960.056V189.914H1001.37ZM1001.37 187.582H960.056V149.986H1001.37V187.582ZM1001.37 147.654H960.056V110.058H1001.37V147.654ZM1001.37 107.726H960.056V70.1297H1001.37V107.726ZM1001.37 67.7975H960.056V30.2017H1001.37V67.7975ZM1001.37 27.8696H960.056V-9.72629H1001.37V27.8696ZM1001.37 -12.0584H960.056L960.056 -49.6543L1001.37 -49.6543L1001.37 -12.0584ZM1003.7 -12.0584L1003.7 -49.6543H1045.01L1045.01 -12.0584L1003.7 -12.0584ZM1047.34 -12.0584V-49.6543L1088.65 -49.6543L1088.65 -12.0584H1047.34ZM1090.98 -12.0584L1090.98 -49.6543H1132.29V-12.0584H1090.98ZM1134.62 -12.0584V-49.6543H1175.93V-12.0584H1134.62ZM1178.26 -12.0584L1178.26 -49.6543H1219.57V-12.0584H1178.26ZM1221.91 -12.0584V-49.6543H1263.22V-12.0584L1221.91 -12.0584ZM1265.55 -12.0584L1265.55 -49.6543L1306.86 -49.6543L1306.86 -12.0584H1265.55ZM1309.19 -12.0584V-49.6543H1350.5V-12.0584H1309.19ZM1352.83 -12.0584L1352.83 -49.6543L1394.14 -49.6542V-12.0584H1352.83ZM1396.47 -12.0584V-49.6542H1437.78V-12.0584L1396.47 -12.0584ZM1440.11 -12.0584V-49.6542L1481.42 -49.6542L1481.42 -12.0584H1440.11ZM1483.76 -12.0584V-49.6542H1525.07V-12.0584H1483.76ZM1527.4 -12.0584L1527.4 -49.6542L1568.71 -49.6542V-12.0584H1527.4ZM1527.4 -9.72624H1568.71V27.8696H1527.4V-9.72624ZM1527.4 30.2018H1568.71L1568.71 67.7976H1527.4V30.2018ZM1527.4 70.1297H1568.71V107.726H1527.4V70.1297ZM1527.4 110.058H1568.71V147.654H1527.4V110.058ZM1527.4 149.986H1568.71V187.582H1527.4V149.986ZM1525.07 149.986V187.582L1483.76 187.582V149.986H1525.07ZM1481.42 149.986V187.582H1440.11L1440.11 149.986H1481.42ZM1437.78 149.986V187.582H1396.47V149.986H1437.78ZM1394.14 149.986V187.582H1352.83V149.986H1394.14ZM1350.5 149.986V187.582H1309.19V149.986L1350.5 149.986ZM1306.86 149.986V187.582H1265.55V149.986H1306.86ZM1263.22 149.986V187.582H1221.91V149.986H1263.22ZM1219.57 149.986V187.582H1178.26V149.986H1219.57ZM1175.93 149.986V187.582H1134.62V149.986H1175.93ZM1132.29 149.986V187.582L1090.98 187.582V149.986H1132.29ZM1088.65 149.986V187.582H1047.34V149.986H1088.65ZM1045.01 149.986V187.582H1003.7V149.986H1045.01ZM1045.01 147.654H1003.7V110.058H1045.01V147.654ZM1045.01 107.726H1003.7V70.1297L1045.01 70.1297V107.726ZM1045.01 67.7976L1003.7 67.7975V30.2017L1045.01 30.2017V67.7976ZM1045.01 27.8696L1003.7 27.8696V-9.72629L1045.01 -9.72627V27.8696ZM1047.34 27.8696V-9.72627H1088.65V27.8696H1047.34ZM1090.98 27.8696V-9.72627H1132.29V27.8696H1090.98ZM1134.62 27.8696V-9.72627H1175.93V27.8696H1134.62ZM1178.26 27.8696V-9.72627H1219.57V27.8696H1178.26ZM1221.91 27.8696V-9.72627L1263.22 -9.72626V27.8696L1221.91 27.8696ZM1265.55 27.8696V-9.72626H1306.86V27.8696H1265.55ZM1309.19 27.8696V-9.72626H1350.5V27.8696H1309.19ZM1352.83 27.8696V-9.72626H1394.14V27.8696H1352.83ZM1396.47 27.8696V-9.72626L1437.78 -9.72624V27.8696L1396.47 27.8696ZM1440.11 27.8696V-9.72624H1481.42V27.8696H1440.11ZM1483.76 27.8696V-9.72624H1525.07V27.8696H1483.76ZM1483.76 30.2018H1525.07V67.7976H1483.76V30.2018ZM1483.76 70.1297H1525.07V107.726L1483.76 107.726V70.1297ZM1483.76 110.058L1525.07 110.058V147.654H1483.76V110.058ZM1481.42 110.058V147.654H1440.11V110.058H1481.42ZM1437.78 110.058V147.654H1396.47V110.058H1437.78ZM1394.14 110.058V147.654H1352.83V110.058H1394.14ZM1350.5 110.058V147.654L1309.19 147.654V110.058H1350.5ZM1306.86 110.058V147.654H1265.55V110.058H1306.86ZM1263.22 110.058V147.654H1221.91V110.058H1263.22ZM1219.57 110.058V147.654H1178.26V110.058H1219.57ZM1175.93 110.058V147.654H1134.62V110.058H1175.93ZM1132.29 110.058V147.654H1090.98V110.058L1132.29 110.058ZM1088.65 110.058V147.654H1047.34V110.058H1088.65ZM1088.65 107.726H1047.34V70.1297H1088.65V107.726ZM1088.65 67.7976H1047.34V30.2017H1088.65V67.7976ZM1090.98 67.7976V30.2017H1132.29V67.7976H1090.98ZM1134.62 67.7976V30.2017H1175.93V67.7976H1134.62ZM1178.26 67.7976V30.2017H1219.57V67.7976H1178.26ZM1221.91 67.7976V30.2017L1263.22 30.2017V67.7976L1221.91 67.7976ZM1265.55 67.7976V30.2017H1306.86V67.7976H1265.55ZM1309.19 67.7976V30.2017H1350.5V67.7976H1309.19ZM1352.83 67.7976V30.2017H1394.14V67.7976H1352.83ZM1396.47 67.7976V30.2017L1437.78 30.2018V67.7976L1396.47 67.7976ZM1440.11 67.7976V30.2018H1481.42V67.7976H1440.11ZM1440.11 70.1297H1481.42V107.726H1440.11V70.1297ZM1437.78 70.1297V107.726H1396.47V70.1297L1437.78 70.1297ZM1394.14 70.1297V107.726H1352.83V70.1297H1394.14ZM1350.5 70.1297V107.726H1309.19V70.1297H1350.5ZM1306.86 70.1297V107.726H1265.55V70.1297H1306.86ZM1263.22 70.1297V107.726H1221.91V70.1297L1263.22 70.1297ZM1219.57 70.1297L1219.57 107.726H1178.26V70.1297H1219.57ZM1175.93 70.1297V107.726H1134.62V70.1297H1175.93ZM1132.29 70.1297V107.726L1090.98 107.726V70.1297H1132.29Z" fill="url(#paint0_radial_21_313)" fill-opacity="0.2"/>
</g>
<defs>
<radialGradient id="paint0_radial_21_313" cx="0" cy="0" r="1" gradientUnits="userSpaceOnUse" gradientTransform="translate(850 89.46) rotate(-179.954) scale(577.5 1870.29)">
<stop stop-color="#A1B0FF"/>
<stop offset="1" stop-color="#8094FF" stop-opacity="0"/>
</radialGradient>
</defs>
</svg>
