<svg width="30" height="28" viewBox="0 0 30 28" fill="none" xmlns="http://www.w3.org/2000/svg">
<path d="M29.9454 10.1093L23.7158 10.6011V2.84154C23.7158 1.25684 22.459 0 20.8743 0H2.84153C1.25683 0 0 1.25684 0 2.84154V15.7377L8.03279 20.6557L29.9454 10.1093Z" fill="url(#paint0_linear_21_286)"/>
<path d="M8.14212 26.0656L0.0546875 15.7377V24.6448C0.0546875 26.2295 1.31152 27.4864 2.89622 27.4864H20.929C22.5137 27.4864 23.7705 26.2295 23.7705 24.6448V17.7049L30 10.2186L8.14212 26.0656Z" fill="url(#paint1_linear_21_286)"/>
<g opacity="0.2">
<path d="M18.907 4.69968H9.18027V6.01115H18.907V4.69968Z" fill="black"/>
<path d="M6.12022 6.61201C6.78417 6.61201 7.3224 6.07377 7.3224 5.40982C7.3224 4.74587 6.78417 4.20764 6.12022 4.20764C5.45627 4.20764 4.91803 4.74587 4.91803 5.40982C4.91803 6.07377 5.45627 6.61201 6.12022 6.61201Z" fill="black"/>
<path d="M18.907 9.50821H9.18027V10.8197H18.907V9.50821Z" fill="black"/>
<path d="M6.12028 11.3661C6.78423 11.3661 7.32246 10.8279 7.32246 10.164C7.32246 9.50001 6.78423 8.96176 6.12028 8.96176C5.45633 8.96176 4.91809 9.50001 4.91809 10.164C4.91809 10.8279 5.45633 11.3661 6.12028 11.3661Z" fill="black"/>
<path d="M15.9016 14.2625H9.18027V15.574H15.9016V14.2625Z" fill="black"/>
<path d="M6.12028 16.1204C6.78423 16.1204 7.32246 15.5822 7.32246 14.9183C7.32246 14.2543 6.78423 13.7161 6.12028 13.7161C5.45633 13.7161 4.91809 14.2543 4.91809 14.9183C4.91809 15.5822 5.45633 16.1204 6.12028 16.1204Z" fill="black"/>
</g>
<path d="M18.907 3.38794H9.18027V4.69941H18.907V3.38794Z" fill="white"/>
<path d="M6.12022 5.24589C6.78417 5.24589 7.3224 4.70765 7.3224 4.0437C7.3224 3.37975 6.78417 2.84152 6.12022 2.84152C5.45627 2.84152 4.91803 3.37975 4.91803 4.0437C4.91803 4.70765 5.45627 5.24589 6.12022 5.24589Z" fill="white"/>
<path d="M18.907 8.14206H9.18027V9.45355H18.907V8.14206Z" fill="white"/>
<path d="M6.12028 10C6.78423 10 7.32246 9.46175 7.32246 8.7978C7.32246 8.13386 6.78423 7.59561 6.12028 7.59561C5.45633 7.59561 4.91809 8.13386 4.91809 8.7978C4.91809 9.46175 5.45633 10 6.12028 10Z" fill="white"/>
<path d="M15.9016 12.8964H9.18027V14.2078H15.9016V12.8964Z" fill="white"/>
<path d="M6.12028 14.7543C6.78423 14.7543 7.32246 14.2161 7.32246 13.5521C7.32246 12.8882 6.78423 12.3499 6.12028 12.3499C5.45633 12.3499 4.91809 12.8882 4.91809 13.5521C4.91809 14.2161 5.45633 14.7543 6.12028 14.7543Z" fill="white"/>
<defs>
<linearGradient id="paint0_linear_21_286" x1="5.4988" y1="19.2998" x2="19.7657" y2="-0.686989" gradientUnits="userSpaceOnUse">
<stop stop-color="#F8003C"/>
<stop offset="1" stop-color="#FF8438"/>
</linearGradient>
<linearGradient id="paint1_linear_21_286" x1="0.652775" y1="25.7226" x2="23.1668" y2="16.4639" gradientUnits="userSpaceOnUse">
<stop offset="0.1645" stop-color="#0099AC"/>
<stop offset="0.9996" stop-color="#00D5C9"/>
</linearGradient>
</defs>
</svg>
